<?xml version="1.0" encoding="utf-8"?>
<!-- Generator: Adobe Illustrator 23.0.6, SVG Export Plug-In . SVG Version: 6.00 Build 0)  -->
<svg version="1.1" id="Layer_1" xmlns="http://www.w3.org/2000/svg" xmlns:xlink="http://www.w3.org/1999/xlink" x="0px" y="0px"
	 viewBox="0 0 195 195" style="enable-background:new 0 0 195 195;" xml:space="preserve">
<style type="text/css">
	.st0{fill-rule:evenodd;clip-rule:evenodd;fill:#FFFFFF;}
</style>
<path class="st0" d="M96.904,0.473c-53.381,0-96.668,43.282-96.668,96.68c0,42.708,27.697,78.943,66.117,91.728
	c4.834,0.887,6.598-2.098,6.598-4.66c0-2.295-0.084-8.375-0.131-16.442c-26.892,5.842-32.566-12.959-32.566-12.959
	c-4.396-11.168-10.734-14.141-10.734-14.141c-8.777-5.998,0.664-5.877,0.664-5.877c9.702,0.684,14.808,9.963,14.808,9.963
	c8.624,14.773,22.626,10.507,28.135,8.033c0.878-6.248,3.376-10.507,6.138-12.924c-21.467-2.44-44.035-10.734-44.035-47.779
	c0-10.554,3.767-19.183,9.951-25.941c-0.994-2.446-4.312-12.275,0.948-25.585c0,0,8.117-2.599,26.585,9.91
	c7.711-2.144,15.981-3.217,24.202-3.254c8.21,0.037,16.48,1.11,24.202,3.254c18.456-12.51,26.559-9.91,26.559-9.91
	c5.274,13.31,1.956,23.139,0.962,25.585c6.196,6.758,9.937,15.388,9.937,25.941c0,37.138-22.603,45.311-44.14,47.704
	c3.471,2.985,6.563,8.885,6.563,17.903c0,12.924-0.119,23.351-0.119,26.521c0,2.585,1.741,5.593,6.648,4.649
	c38.382-12.809,66.056-49.02,66.056-91.717C193.585,43.755,150.297,0.473,96.904,0.473z"/>
</svg>
